<?xml version="1.0" standalone="no"?>
<!DOCTYPE svg PUBLIC "-//W3C//DTD SVG 20010904//EN"
 "http://www.w3.org/TR/2001/REC-SVG-20010904/DTD/svg10.dtd">
<svg version="1.0" xmlns="http://www.w3.org/2000/svg"
 width="512.000000pt" height="512.000000pt" viewBox="0 0 512.000000 512.000000"
 preserveAspectRatio="xMidYMid meet">

<g transform="translate(0.000000,512.000000) scale(0.100000,-0.100000)"
fill="#ffffff" stroke="none">
<path d="M2472 4987 c-159 -240 -178 -334 -90 -447 11 -13 31 -32 45 -41 l26
-17 -38 -16 c-21 -9 -57 -32 -80 -50 l-41 -34 -39 30 c-55 42 -169 94 -238
108 -81 16 -228 14 -322 -5 -101 -21 -166 -46 -388 -152 -163 -77 -180 -83
-196 -69 -79 71 -213 54 -285 -37 -25 -31 -31 -49 -34 -101 -6 -91 27 -151
103 -189 102 -51 188 -19 275 101 19 26 366 191 486 231 201 67 374 45 504
-64 45 -37 45 -38 47 -107 3 -129 84 -251 203 -307 47 -22 69 -26 150 -26 81
0 103 4 150 26 119 56 200 178 203 307 2 69 2 70 47 107 127 107 296 130 494
68 44 -14 169 -67 277 -119 109 -52 201 -94 207 -94 5 0 15 -13 22 -30 29 -71
134 -129 203 -114 113 24 172 99 165 210 -3 52 -9 70 -34 101 -72 91 -206 108
-285 37 -16 -14 -33 -8 -196 69 -222 106 -287 131 -388 152 -94 19 -241 21
-322 5 -69 -14 -183 -66 -237 -107 l-39 -30 -46 35 c-25 19 -61 41 -80 49
l-34 15 26 17 c30 20 58 53 82 100 24 47 17 129 -19 206 -28 61 -185 305 -196
305 -3 0 -43 -55 -88 -123z"/>
<path d="M953 3788 c-18 -5 -39 -19 -47 -31 -12 -18 -138 -347 -658 -1724
l-19 -53 -109 0 c-60 0 -111 -4 -114 -8 -2 -4 13 -45 34 -90 112 -237 329
-442 565 -533 139 -54 249 -72 415 -66 154 5 244 23 364 74 229 95 442 301
546 526 45 98 51 91 -78 97 l-114 5 -333 884 c-184 486 -340 890 -347 898 -21
21 -70 31 -105 21z m292 -1053 c142 -374 263 -697 271 -717 l13 -38 -544 0
-545 0 25 68 c188 500 519 1372 521 1370 1 -2 118 -309 259 -683z"/>
<path d="M4104 3789 c-17 -5 -37 -16 -44 -24 -7 -8 -162 -412 -345 -897 l-333
-883 -104 -3 c-56 -1 -109 -4 -115 -7 -9 -3 -3 -26 21 -79 108 -237 318 -441
552 -540 138 -57 215 -71 399 -71 190 0 267 15 416 79 155 67 313 193 420 335
53 71 152 258 143 272 -3 5 -54 9 -114 9 l-109 0 -19 53 c-496 1313 -643 1700
-652 1718 -9 16 -70 52 -82 48 -2 0 -17 -5 -34 -10z m305 -1090 l270 -714
-269 -3 c-148 -1 -392 -1 -543 0 l-275 3 271 718 c148 394 272 716 273 714 2
-2 125 -325 273 -718z"/>
<path d="M2194 3503 c10 -73 57 -163 114 -218 l52 -50 0 -1153 0 -1152 -37
-17 c-67 -31 -148 -90 -199 -145 -80 -88 -128 -195 -149 -330 l-6 -38 -217 0
c-190 0 -222 -3 -257 -19 -90 -41 -115 -98 -115 -256 l0 -115 1180 0 1180 0 0
115 c0 158 -25 215 -115 256 -35 16 -67 19 -257 19 l-217 0 -6 38 c-21 135
-69 242 -149 330 -51 55 -132 114 -198 145 l-38 17 0 1152 0 1153 52 50 c57
55 104 145 114 218 l7 47 -373 0 -373 0 7 -47z"/>
</g>
</svg>
