<?xml version="1.0" standalone="no"?>
<!DOCTYPE svg PUBLIC "-//W3C//DTD SVG 20010904//EN"
 "http://www.w3.org/TR/2001/REC-SVG-20010904/DTD/svg10.dtd">
<svg version="1.0" xmlns="http://www.w3.org/2000/svg"
 width="512.000000pt" height="512.000000pt" viewBox="0 0 512.000000 512.000000"
 preserveAspectRatio="xMidYMid meet">

<g transform="translate(0.000000,512.000000) scale(0.100000,-0.100000)"
fill="#ffffff" stroke="none">
<path d="M2520 5107 c-8 -6 -33 -38 -54 -70 -140 -208 -478 -380 -916 -466
-206 -40 -518 -71 -724 -71 -114 0 -142 -11 -157 -59 -7 -25 -9 -454 -7 -1361
5 -1484 -1 -1374 79 -1573 83 -210 189 -359 418 -588 259 -259 511 -446 906
-674 156 -90 469 -245 495 -245 26 0 339 155 495 245 763 440 1240 921 1364
1375 12 41 25 118 31 170 14 134 14 2617 0 2657 -15 42 -47 53 -156 53 -52 0
-161 5 -242 10 -564 40 -978 162 -1242 366 -68 52 -105 91 -167 174 -39 52
-54 65 -78 67 -17 2 -37 -3 -45 -10z m87 -574 c10 -14 48 -58 85 -97 105 -112
263 -197 483 -261 180 -52 508 -95 731 -95 75 0 96 -3 115 -19 l24 -19 3 -974
c2 -585 -1 -1017 -7 -1083 -23 -257 -132 -457 -385 -711 -148 -147 -238 -221
-421 -346 -225 -154 -618 -368 -675 -368 -57 0 -452 216 -675 368 -182 124
-273 199 -420 347 -189 188 -294 345 -356 530 l-24 70 -3 1087 -3 1087 23 14
c16 10 71 16 188 21 596 21 1013 168 1202 423 46 63 84 72 115 26z"/>
<path d="M2555 3982 c-9 -142 0 -3111 9 -3119 17 -17 350 162 535 286 274 185
494 409 594 608 15 28 36 84 49 125 22 73 22 77 26 929 3 812 2 857 -15 877
-17 21 -31 23 -199 32 -283 15 -508 62 -681 140 -110 50 -212 129 -255 198
-11 18 -28 37 -38 42 -17 9 -19 1 -25 -118z"/>
</g>
</svg>
