<?xml version="1.0" standalone="no"?>
<!DOCTYPE svg PUBLIC "-//W3C//DTD SVG 20010904//EN"
 "http://www.w3.org/TR/2001/REC-SVG-20010904/DTD/svg10.dtd">
<svg version="1.0" xmlns="http://www.w3.org/2000/svg"
 width="512.000000pt" height="512.000000pt" viewBox="0 0 512.000000 512.000000"
 preserveAspectRatio="xMidYMid meet">

<g transform="translate(0.000000,512.000000) scale(0.100000,-0.100000)"
fill="#ffffff" stroke="none">
<path d="M3668 5104 c-270 -65 -451 -346 -394 -612 58 -275 316 -460 589 -422
104 15 219 72 294 147 213 213 215 532 4 744 -133 133 -316 186 -493 143z"/>
<path d="M2189 4416 c-54 -19 -100 -48 -121 -76 -10 -14 -100 -234 -200 -490
-159 -405 -182 -472 -182 -520 0 -66 21 -109 69 -145 46 -36 105 -48 158 -34
48 12 101 49 119 82 6 12 78 192 159 400 81 208 149 380 151 382 3 3 370 -96
406 -110 12 -4 12 -9 -1 -28 -16 -25 -531 -1138 -558 -1207 -9 -25 -163 -290
-342 -590 l-324 -545 -553 -186 -553 -185 -38 -43 c-97 -114 -91 -271 16 -377
87 -87 213 -109 316 -55 24 13 296 111 604 217 l560 193 56 62 c36 40 126 179
255 395 109 184 202 333 206 331 4 -1 152 -126 329 -277 178 -151 332 -282
342 -291 19 -15 5 -33 -359 -442 -208 -235 -390 -448 -404 -475 -20 -38 -25
-62 -25 -122 0 -117 48 -195 158 -252 61 -33 165 -32 237 2 48 23 102 80 542
575 343 386 496 565 513 602 34 71 35 177 1 248 -26 57 -37 67 -439 409 l-267
228 40 45 c44 51 83 129 321 645 90 196 167 353 170 350 6 -8 123 -321 134
-362 12 -42 56 -91 99 -111 47 -21 118 -24 158 -6 42 19 843 704 856 732 33
73 -17 206 -97 257 -48 30 -123 38 -175 18 -14 -5 -149 -113 -300 -239 l-274
-230 -112 277 c-155 382 -177 426 -271 526 -65 70 -142 114 -254 145 -38 11
-288 81 -554 155 -265 75 -495 136 -510 136 -14 -1 -42 -7 -62 -14z"/>
</g>
</svg>
