<?xml version="1.0" standalone="no"?>
<!DOCTYPE svg PUBLIC "-//W3C//DTD SVG 20010904//EN"
 "http://www.w3.org/TR/2001/REC-SVG-20010904/DTD/svg10.dtd">
<svg version="1.0" xmlns="http://www.w3.org/2000/svg"
 width="512.000000pt" height="512.000000pt" viewBox="0 0 512.000000 512.000000"
 preserveAspectRatio="xMidYMid meet">

<g transform="translate(0.000000,512.000000) scale(0.100000,-0.100000)"
fill="#ffffff" stroke="none">
<path d="M1740 5113 c-521 -56 -989 -508 -1145 -1108 -35 -135 -51 -257 -70
-530 -33 -467 -42 -887 -29 -1258 29 -783 60 -1038 161 -1292 251 -639 811
-1003 1392 -906 174 29 193 39 531 273 110 76 123 89 140 142 59 183 -153 750
-354 948 -111 109 -153 112 -302 22 -325 -198 -375 -224 -430 -224 -62 0 -119
57 -157 156 l-22 59 0 1160 c0 1070 1 1164 17 1216 35 111 105 176 180 166 60
-8 102 -30 412 -220 149 -92 181 -90 294 17 145 136 311 482 356 743 20 111
20 168 1 224 -14 41 -28 53 -195 169 -260 181 -307 205 -463 230 -116 18 -225
23 -317 13z"/>
<path d="M2936 4409 c-3 -8 -14 -51 -26 -96 -11 -45 -38 -128 -60 -184 -22
-57 -40 -104 -40 -104 0 -1 39 -5 88 -9 639 -48 1191 -553 1309 -1200 23 -124
23 -388 0 -512 -118 -647 -670 -1152 -1309 -1200 -49 -4 -88 -8 -88 -9 0 -1
16 -42 36 -91 19 -49 48 -136 63 -194 l28 -105 63 2 c83 4 262 45 385 89 653
232 1125 805 1230 1494 31 203 18 512 -31 705 -34 134 -91 287 -154 411 -221
434 -604 767 -1064 924 -187 64 -421 107 -430 79z"/>
<path d="M2300 3091 c-120 -39 -202 -126 -249 -264 l-20 -57 92 0 93 0 12 44
c26 98 124 156 205 123 42 -18 57 -42 57 -94 -1 -50 -29 -112 -73 -155 -19
-19 -102 -79 -183 -133 -177 -117 -249 -186 -298 -287 -19 -40 -38 -83 -41
-95 l-6 -23 325 0 326 0 6 28 c3 15 10 43 15 62 19 75 32 70 -197 70 -192 0
-205 1 -193 17 8 9 79 59 159 111 196 127 242 164 284 225 47 69 67 129 67
203 0 100 -36 165 -116 207 -31 16 -62 22 -140 24 -55 1 -111 -1 -125 -6z"/>
<path d="M2955 2819 c-121 -148 -226 -278 -233 -289 -15 -20 -41 -121 -42
-157 l0 -23 185 0 185 0 -5 -22 c-2 -13 -11 -54 -20 -91 -8 -38 -15 -72 -15
-78 0 -5 40 -9 89 -9 77 0 90 3 95 18 2 9 12 54 22 100 l17 82 53 0 c47 0 54
3 59 23 14 63 25 113 25 120 0 4 -22 7 -50 7 -36 0 -50 4 -50 14 0 11 100 488
117 554 5 22 4 22 -103 22 l-109 -1 -220 -270z m169 -118 c-20 -99 -40 -185
-44 -191 -4 -7 -47 -10 -120 -8 l-113 3 153 193 c84 106 155 191 157 188 3 -2
-12 -86 -33 -185z"/>
</g>
</svg>
