<?xml version="1.0" standalone="no"?>
<!DOCTYPE svg PUBLIC "-//W3C//DTD SVG 20010904//EN"
 "http://www.w3.org/TR/2001/REC-SVG-20010904/DTD/svg10.dtd">
<svg version="1.0" xmlns="http://www.w3.org/2000/svg"
 width="512.000000pt" height="512.000000pt" viewBox="0 0 512.000000 512.000000"
 preserveAspectRatio="xMidYMid meet">

<g transform="translate(0.000000,512.000000) scale(0.100000,-0.100000)"
fill="#ffffff" stroke="none">
<path d="M2365 5114 c-266 -29 -428 -61 -617 -125 -759 -253 -1364 -858 -1617
-1617 -199 -594 -168 -1275 84 -1844 361 -815 1112 -1381 1995 -1505 172 -24
528 -24 700 0 820 115 1514 600 1913 1337 323 598 386 1355 167 2011 -308 919
-1115 1592 -2070 1724 -111 15 -473 28 -555 19z m497 -390 c395 -52 746 -203
1053 -452 44 -36 81 -66 83 -68 17 -12 -181 -223 -308 -328 -174 -145 -451
-308 -695 -411 -60 -26 -115 -49 -121 -51 -6 -3 -51 66 -99 153 -176 314 -424
700 -617 961 -55 73 -102 140 -104 147 -3 8 7 14 28 18 18 3 76 13 128 22 198
35 432 38 652 9z m-1154 -299 c257 -352 750 -1140 719 -1150 -7 -2 -66 -18
-132 -34 -424 -104 -833 -170 -1273 -206 -189 -15 -602 -31 -602 -23 0 26 79
278 115 368 155 387 443 745 784 979 113 77 282 172 301 169 8 -2 47 -48 88
-103z m2604 -557 c267 -357 404 -741 432 -1210 4 -77 6 -75 -80 -59 -246 47
-509 71 -829 78 -261 5 -555 -6 -599 -23 -9 -3 -21 15 -36 53 -13 32 -56 130
-97 217 -40 88 -72 160 -71 161 2 1 53 23 113 50 212 93 480 250 662 386 129
97 311 265 379 350 31 38 60 69 64 69 4 0 32 -33 62 -72z m-1606 -1104 c47
-96 84 -180 82 -186 -2 -6 -58 -29 -124 -53 -281 -97 -727 -353 -1003 -576
-253 -203 -524 -511 -681 -772 l-47 -77 -59 72 c-245 300 -403 645 -469 1023
-18 106 -37 365 -28 406 l6 29 111 0 c314 0 840 44 1196 101 261 41 628 122
835 183 44 13 84 24 88 25 5 1 47 -78 93 -175z m1405 -434 c200 -20 590 -97
604 -119 8 -15 -37 -206 -80 -336 -141 -431 -417 -809 -790 -1085 -31 -23 -58
-40 -60 -38 -2 1 -17 75 -35 163 -70 352 -190 793 -325 1195 -36 107 -65 195
-65 196 0 4 82 16 154 24 109 11 482 11 597 0z m-1077 -367 c100 -282 183
-557 254 -838 46 -181 122 -535 122 -568 0 -31 -336 -130 -550 -162 -136 -21
-417 -23 -560 -6 -325 40 -617 142 -885 309 -94 59 -195 131 -195 139 0 18
101 192 153 265 272 379 681 695 1262 974 109 53 306 135 311 130 1 0 41 -110
88 -243z"/>
</g>
</svg>
