<?xml version="1.0" standalone="no"?>
<!DOCTYPE svg PUBLIC "-//W3C//DTD SVG 20010904//EN"
 "http://www.w3.org/TR/2001/REC-SVG-20010904/DTD/svg10.dtd">
<svg version="1.0" xmlns="http://www.w3.org/2000/svg"
 width="512.000000pt" height="512.000000pt" viewBox="0 0 512.000000 512.000000"
 preserveAspectRatio="xMidYMid meet">

<g transform="translate(0.000000,512.000000) scale(0.100000,-0.100000)"
fill="#ffffff" stroke="none">
<path d="M1131 4678 c81 -244 164 -507 184 -584 l35 -142 0 -391 0 -391 145 0
145 0 0 395 0 394 170 563 c94 310 173 571 176 581 5 16 -6 17 -143 17 l-148
0 -84 -328 c-47 -180 -92 -351 -101 -381 l-16 -54 -82 304 c-45 167 -91 339
-103 382 l-21 77 -153 0 -153 0 149 -442z"/>
<path d="M2297 4630 c-62 -11 -122 -42 -171 -88 -82 -79 -111 -153 -127 -327
-13 -140 -5 -683 11 -760 25 -122 103 -225 208 -276 55 -27 211 -38 277 -20
109 29 205 121 247 236 21 57 22 78 26 454 4 422 -1 486 -43 578 -33 73 -104
145 -173 176 -65 29 -177 41 -255 27z m163 -255 c42 -38 45 -70 45 -490 0
-362 -2 -403 -17 -432 -25 -44 -55 -63 -104 -63 -57 0 -98 34 -113 94 -15 60
-15 766 0 820 6 22 24 53 40 69 27 27 35 29 80 25 27 -3 58 -13 69 -23z"/>
<path d="M2990 4022 c0 -360 4 -631 11 -682 17 -140 55 -182 170 -188 62 -4
77 -1 132 26 35 17 91 56 125 87 l62 57 0 -76 0 -76 130 0 130 0 0 725 0 725
-130 0 -130 0 0 -554 0 -553 -41 -47 c-61 -69 -125 -94 -168 -67 -25 16 -30
126 -30 684 l-1 537 -130 0 -130 0 0 -598z"/>
<path d="M1700 3003 c-30 -1 -152 -7 -270 -13 -293 -15 -502 -36 -580 -60
-122 -37 -221 -109 -289 -210 -73 -111 -106 -235 -138 -526 -22 -206 -26
-1108 -5 -1329 16 -166 46 -350 69 -420 52 -161 169 -289 321 -350 105 -42
390 -68 952 -86 413 -13 1594 -7 1910 11 218 12 482 35 557 49 178 34 339 180
402 364 24 70 56 259 73 432 18 182 18 1101 0 1290 -35 369 -84 518 -209 642
-89 89 -181 134 -307 152 -313 45 -768 61 -1661 59 -423 -1 -795 -3 -825 -5z
m-70 -593 l0 -140 -155 0 -155 0 0 -830 0 -830 -145 0 -145 0 0 830 0 830
-155 0 -155 0 0 140 0 140 455 0 455 0 0 -140z m1280 -176 l0 -317 53 50 c93
88 187 119 282 93 61 -17 118 -80 142 -157 16 -53 18 -105 18 -573 0 -590 0
-594 -78 -674 -92 -96 -231 -82 -365 39 l-52 47 0 -66 0 -66 -130 0 -130 0 0
970 0 970 130 0 130 0 0 -316z m1264 -197 c66 -30 127 -84 160 -142 48 -81 58
-143 63 -382 l5 -223 -261 0 -261 0 0 -172 c0 -148 3 -179 19 -215 21 -46 62
-73 110 -73 84 0 121 60 121 193 l0 87 137 0 136 0 -6 -113 c-4 -78 -13 -131
-27 -168 -57 -153 -177 -233 -351 -232 -104 0 -179 22 -245 72 -63 47 -99 100
-126 186 -22 68 -23 82 -23 485 0 382 2 419 19 470 47 135 142 223 268 250 73
16 202 4 262 -23z m-2244 -567 c0 -421 3 -586 12 -605 25 -56 102 -40 172 35
l46 49 0 551 0 550 130 0 130 0 0 -720 0 -720 -130 0 -130 0 0 77 0 77 -37
-35 c-119 -112 -209 -150 -307 -129 -63 13 -106 53 -127 117 -10 29 -14 200
-16 686 l-4 647 131 0 130 0 0 -580z"/>
<path d="M3000 1828 c-19 -5 -47 -19 -62 -30 l-28 -19 0 -444 0 -444 34 -26
c66 -51 145 -43 182 18 18 30 19 54 19 447 0 382 -1 418 -18 448 -11 19 -33
40 -52 48 -19 8 -36 14 -37 13 -2 0 -19 -5 -38 -11z"/>
<path d="M3980 1833 c-35 -6 -78 -50 -90 -92 -5 -20 -10 -82 -10 -138 l0 -103
131 0 132 0 -6 113 c-3 66 -11 128 -20 149 -22 53 -76 81 -137 71z"/>
</g>
</svg>
